<svg width="22" height="18" viewBox="0 0 22 18" fill="none" xmlns="http://www.w3.org/2000/svg">
<path d="M5.42647 2.57143V2.32143H5.17647H2.58824H2.33824V2.57143V5.14286V5.39286H2.58824H5.17647H5.42647V5.14286V2.57143ZM2.33824 10.2857V10.5357H2.58824H5.17647H5.42647V10.2857V7.71429V7.46429H5.17647H2.58824H2.33824V7.71429V10.2857ZM2.58824 12.6071H2.33824V12.8571V15.4286V15.6786H2.58824H5.17647H5.42647V15.4286V12.8571V12.6071H5.17647H2.58824ZM19.4118 15.6786H19.6618V15.4286V12.8571V12.6071H19.4118H7.76471H7.51471V12.8571V15.4286V15.6786H7.76471H19.4118ZM19.4118 10.5357H19.6618V10.2857V7.71429V7.46429H19.4118H7.76471H7.51471V7.71429V10.2857V10.5357H7.76471H19.4118ZM19.4118 5.39286H19.6618V5.14286V2.57143V2.32143H19.4118H7.76471H7.51471V2.57143V5.14286V5.39286H7.76471H19.4118ZM0.25 17.75V0.25H21.75V17.75H0.25Z" stroke="#A3AABD" stroke-width="0.5"/>
</svg>
