<svg width="22" height="22" viewBox="0 0 22 22" fill="none" xmlns="http://www.w3.org/2000/svg">
<path d="M14.5841 2.80263L14.6711 2.83308L14.757 2.79977L21.2621 0.278123L21.4093 0.250528C21.6034 0.260604 21.75 0.413821 21.75 0.611111V19.0911C21.75 19.2512 21.6488 19.3846 21.4809 19.4406L21.4802 19.4409L14.6682 21.7357L7.41592 19.1974L7.32892 19.1669L7.24297 19.2002L0.737861 21.7219L0.59069 21.7495C0.396586 21.7394 0.25 21.5862 0.25 21.3889V2.90889C0.25 2.74878 0.351171 2.61536 0.519057 2.55939L0.519813 2.55914L7.33178 0.264327L14.5841 2.80263ZM8.63814 2.78292L8.30556 2.66652V3.01889V17.27V17.4474L8.47297 17.506L13.3619 19.2171L13.6944 19.3335V18.9811V4.73V4.55263L13.527 4.49404L8.63814 2.78292ZM2.36468 3.99196L2.19444 4.04927V4.22889V18.7122V19.0769L2.53461 18.9454L6.20127 17.5276L6.36111 17.4658V17.2944V2.99444V2.64649L6.03134 2.75751L2.36468 3.99196ZM19.6353 18.008L19.8056 17.9507V17.7711V3.3V2.93529L19.4654 3.06682L15.7987 4.4846L15.6389 4.54641V4.71778V19.0056V19.3535L15.9687 19.2425L19.6353 18.008Z" stroke="#A3AABD" stroke-width="0.5"/>
</svg>
