<svg width="28" height="28" viewBox="0 0 28 28" fill="none" xmlns="http://www.w3.org/2000/svg">
<path d="M14 13.9998C16.5784 13.9998 18.6667 11.9115 18.6667 9.33317C18.6667 6.75484 16.5784 4.6665 14 4.6665C11.4217 4.6665 9.33335 6.75484 9.33335 9.33317C9.33335 11.9115 11.4217 13.9998 14 13.9998ZM14 6.99984C15.2834 6.99984 16.3334 8.04984 16.3334 9.33317C16.3334 10.6165 15.2834 11.6665 14 11.6665C12.7167 11.6665 11.6667 10.6165 11.6667 9.33317C11.6667 8.04984 12.7167 6.99984 14 6.99984ZM14 15.1665C10.885 15.1665 4.66669 16.7298 4.66669 19.8332V23.3332H23.3334V19.8332C23.3334 16.7298 17.115 15.1665 14 15.1665ZM21 20.9998H7.00002V19.8448C7.23335 19.0048 10.85 17.4998 14 17.4998C17.15 17.4998 20.7667 19.0048 21 19.8332V20.9998Z" fill="white"/>
</svg>
